Coordinates
version=1
nRows=6
nColumns=63
inDegrees=yes

Units are S.I. units (second, meters, Newtons, ...)
If the header above contains a line with 'inDegrees', this indicates whether rotational values are in degrees (yes) or radians (no).

endheader
time	pelvis_tilt	pelvis_list	pelvis_rotation	pelvis_tx	pelvis_ty	pelvis_tz	hip_flexion_r	hip_adduction_r	hip_rotation_r	knee_angle_r	knee_angle_r_beta	ankle_angle_r	subtalar_angle_r	mtp_angle_r	hip_flexion_l	hip_adduction_l	hip_rotation_l	knee_angle_l	knee_angle_l_beta	ankle_angle_l	subtalar_angle_l	mtp_angle_l	L5_S1_Flex_Ext	L5_S1_Lat_Bending	L5_S1_axial_rotation	L4_L5_Flex_Ext	L4_L5_Lat_Bending	L4_L5_axial_rotation	L3_L4_Flex_Ext	L3_L4_Lat_Bending	L3_L4_axial_rotation	L2_L3_Flex_Ext	L2_L3_Lat_Bending	L2_L3_axial_rotation	L1_L2_Flex_Ext	L1_L2_Lat_Bending	L1_L2_axial_rotation	L1_T12_Flex_Ext	L1_T12_Lat_Bending	L1_T12_axial_rotation	Abs_r3	Abs_r2	Abs_r1	Abs_t1	Abs_t2	neck_flexion	neck_bending	neck_rotation	arm_flex_r	arm_add_r	arm_rot_r	elbow_flex_r	pro_sup_r	wrist_flex_r	wrist_dev_r	arm_flex_l	arm_add_l	arm_rot_l	elbow_flex_l	pro_sup_l	wrist_flex_l	wrist_dev_l
      1.23333333	      1.69342029	    -12.63770427	     82.57552086	      0.18127469	      0.92958185	      0.50293694	     20.85335083	      3.25936792	    -12.07038832	     11.96039987	      0.20874836	     25.40066400	      2.01208181	      0.00000000	     16.19768602	     -3.95646389	     14.86607880	      2.09842673	      0.03662446	     22.91694621	    -10.73940168	      0.00000000	     -0.16583203	      0.48120522	      0.13957808	     -0.30796666	      0.64000295	      0.14830171	     -0.27244544	      1.17000238	      0.14830171	     -0.18952943	      1.17000238	      0.12213082	     -0.15399162	      0.98127369	      0.11340719	     -0.09475642	      0.74538689	      0.10468356	     -1.18452161	      5.44348972	      0.77629140	      0.00000000	      0.00000000	     27.25551957	     -9.09147351	     -2.61584101	      1.78898325	    -17.14941636	     38.38950271	     25.49942977	     80.57414390	     -9.77800486	     -7.88607644	     11.45115197	     -7.10742800	    145.54648872	      0.93536872	      4.09977266	    -21.83048006	    -15.82216023
      1.25000000	      1.71067273	    -12.75487232	     82.34957469	      0.18131235	      0.92980066	      0.50347177	     20.82456529	      3.42008734	    -11.60533933	     11.55120067	      0.20160648	     24.87594037	      1.63944112	      0.00000000	     16.20383942	     -4.05247500	     15.31003066	      1.96760250	      0.03434114	     22.29462545	    -11.35645475	      0.00000000	     -0.18359290	      0.48084510	      0.18874216	     -0.34095038	      0.63952398	      0.20053855	     -0.30162478	      1.16912677	      0.20053855	     -0.20982833	      1.16912677	      0.16514939	     -0.17048437	      0.98053932	      0.15335301	     -0.10490499	      0.74482905	      0.14155662	     -1.31138575	      5.43941590	      1.04972727	      0.00000000	      0.00000000	     26.89329195	     -9.13112446	     -2.58592021	      2.31551309	    -17.03809732	     38.91705913	     25.72054430	     81.37526402	    -10.08209736	     -6.60793413	     11.74739485	     -6.73825408	    144.64309873	      0.97158501	      4.16755325	    -20.32085785	    -15.28151068
      1.26666667	      1.68938406	    -12.98313305	     82.14500600	      0.18153895	      0.92990334	      0.50434820	     20.92106435	      3.56776171	    -11.53818956	     11.07668784	      0.19332467	     24.53613505	      1.64953737	      0.00000000	     16.41770776	     -4.14575598	     15.38429374	      1.81703537	      0.03171325	     21.95682760	    -11.50487390	      0.00000000	     -0.18098071	      0.47181005	      0.23446894	     -0.33609928	      0.62750737	      0.24912325	     -0.29733321	      1.14715896	      0.24912325	     -0.20684285	      1.14715896	      0.20516033	     -0.16805869	      0.96211506	      0.19050602	     -0.10341238	      0.73083377	      0.17585171	     -1.29272712	      5.33720966	      1.30404593	      0.00000000	      0.00000000	     26.56559154	     -9.08077732	     -2.57272269	      2.93558059	    -16.63923710	     39.19470618	     25.52144703	     81.64980769	    -10.25633473	     -5.62214337	     12.00633625	     -6.41174435	    144.46114052	      1.04523607	      4.15767624	    -19.64207104	    -14.85299762
      1.28333333	      1.71800570	    -12.97659175	     81.78493404	      0.18168107	      0.93019737	      0.50505145	     20.68084621	      3.80192442	    -10.82787384	     10.39493547	      0.18142585	     24.42590321	      1.72140115	      0.00000000	     16.29443259	     -4.28357384	     15.57863157	      1.46098556	      0.02549901	     21.89889347	    -12.30471390	      0.00000000	     -0.20916277	      0.47046010	      0.28794359	     -0.38843618	      0.62571193	      0.30594007	     -0.34363352	      1.14387668	      0.30594007	     -0.23905213	      1.14387668	      0.25195065	     -0.19422855	      0.95936223	      0.23395417	     -0.11951561	      0.72874269	      0.21595770	     -1.49402876	      5.32193870	      1.60145589	      0.00000000	      0.00000000	     26.17418127	     -8.90815634	     -2.30050096	      3.62529168	    -16.70639814	     40.16908805	     26.22191914	     82.51030640	    -10.75603807	     -3.09786781	     12.32529284	     -6.02494204	    144.15546599	      0.91776184	      4.17499408	    -16.91058972	    -13.71898639
      1.30000000	      1.73255786	    -13.11679462	     81.57390856	      0.18179874	      0.93019319	      0.50610292	     20.61907277	      4.00010589	    -10.28188705	      9.70859473	      0.16944694	     24.28121665	      1.77601285	      0.00000000	     16.46512329	     -4.40838661	     15.77404266	      1.23388285	      0.02153532	     21.93842890	    -12.79516351	      0.00000000	     -0.21689221	      0.46814671	      0.33295629	     -0.40279052	      0.62263512	      0.35376605	     -0.35633221	      1.13825190	      0.35376605	     -0.24788611	      1.13825190	      0.29133675	     -0.20140611	      0.95464477	      0.27052698	     -0.12393221	      0.72515925	      0.24971721	     -1.54923936	      5.29576918	      1.85180298	      0.00000000	      0.00000000	     25.99961988	     -8.68742373	     -2.02451513	      4.20525503	    -16.55889865	     40.41210853	     26.60032933	     82.77585843	    -10.90194941	     -1.35675478	     12.72580388	     -5.67346932	    144.35599997	      0.84765625	      4.22451252	    -14.75481692	    -13.05020246
      1.31666667	      1.81412678	    -13.24825358	     81.44210183	      0.18182656	      0.93008494	      0.50733881	     20.58372879	      4.24004140	     -9.70801194	      9.10372122	      0.15888991	     23.99748932	      1.52098099	      0.00000000	     16.65713791	     -4.57944648	     15.88789095	      1.05042662	      0.01833340	     22.01048493	    -13.18725467	      0.00000000	     -0.23009022	      0.47448066	      0.37002698	     -0.42730055	      0.63105928	      0.39315367	     -0.37801522	      1.15365228	      0.39315367	     -0.26297011	      1.15365228	      0.32377361	     -0.21366178	      0.96756096	      0.30064692	     -0.13147355	      0.73497054	      0.27752024	     -1.64351143	      5.36742014	      2.05797908	      0.00000000	      0.00000000	     25.97017543	     -8.50264710	     -1.76043577	      4.72699484	    -16.45708188	     40.30618832	     27.06614125	     82.81763276	    -10.87854812	      0.14676564	     13.25799895	     -5.30585861	    145.19704697	      0.75411334	      4.35325266	    -12.41937161	    -12.33585924
